<svg width="173" height="48" viewBox="0 0 173 48" fill="none" xmlns="http://www.w3.org/2000/svg">
<path fill-rule="evenodd" clip-rule="evenodd" d="M172.05 47.9999H158.423L146.016 26.4406L140.147 16.3651L140.119 16.4746L140.117 16.4749L136.438 23.1131L150.788 47.7965H137.068L118.896 16.8448L114.083 23.3899L107.778 12.4069L115.507 0.40688H123.236L123.234 0.415672L123.237 0.406783L129.458 11.1067L137.068 3.16501e-05L144.389 0L144.39 3.16501e-05L144.389 0.000804235L172.05 47.9999ZM74.6271 2.18829e-05H61L88.6606 47.9992L88.6604 48H95.9824L103.592 36.8933L109.813 47.5932L109.816 47.5846L109.814 47.5931H117.543L125.272 35.5932L118.967 24.6101L114.154 31.1551L95.9824 0.203474H82.2625L96.6125 24.8869L92.9326 31.5251L92.9316 31.5254L92.9032 31.6349L87.0339 21.5593L74.6271 2.18829e-05Z" fill="#C9BB9C"/>
<path d="M5.15747 18.0136L0 0H4.16294L7.14653 12.5163H7.29615L10.5878 0H14.1522L17.4351 12.5427H17.5935L20.5771 0H24.74L19.5825 18.0136H15.8685L12.436 6.23616H12.2952L8.87155 18.0136H5.15747Z" fill="white"/>
<path d="M31.4179 18.2775C30.0273 18.2775 28.8303 17.996 27.827 17.4331C26.8295 16.8643 26.0609 16.061 25.5211 15.0231C24.9813 13.9793 24.7114 12.745 24.7114 11.3201C24.7114 9.93037 24.9813 8.71069 25.5211 7.66107C26.0609 6.61145 26.8207 5.79345 27.8006 5.20706C28.7863 4.62068 29.9422 4.32749 31.2683 4.32749C32.1601 4.32749 32.9903 4.47116 33.759 4.75848C34.5335 5.03995 35.2082 5.46507 35.7832 6.03386C36.3641 6.60265 36.8159 7.31804 37.1386 8.18002C37.4613 9.03614 37.6227 10.0388 37.6227 11.1882V12.2173H26.2076V9.89518H34.0934C34.0934 9.35571 33.9761 8.87781 33.7414 8.46148C33.5067 8.04515 33.181 7.71971 32.7645 7.48516C32.3537 7.24474 31.8755 7.12453 31.3299 7.12453C30.7607 7.12453 30.2561 7.25647 29.8161 7.52034C29.3819 7.77835 29.0416 8.12724 28.7951 8.56703C28.5487 9.00095 28.4226 9.48472 28.4167 10.0183V12.226C28.4167 12.8945 28.5399 13.4721 28.7863 13.9588C29.0386 14.4455 29.3936 14.8208 29.8513 15.0847C30.3089 15.3485 30.8517 15.4805 31.4795 15.4805C31.8961 15.4805 32.2775 15.4218 32.6236 15.3046C32.9698 15.1873 33.2661 15.0114 33.5125 14.7768C33.759 14.5423 33.9467 14.2549 34.0758 13.9148L37.5435 14.1435C37.3674 14.9762 37.0066 15.7033 36.4609 16.3249C35.9211 16.9406 35.2229 17.4214 34.3663 17.7674C33.5155 18.1075 32.5327 18.2775 31.4179 18.2775Z" fill="white"/>
<path d="M40.1398 18.0136V0H43.8891V6.7727H44.0035C44.1678 6.40915 44.4054 6.03973 44.7164 5.66444C45.0332 5.2833 45.444 4.96665 45.9486 4.71451C46.459 4.4565 47.0927 4.32749 47.8496 4.32749C48.8353 4.32749 49.7448 4.5855 50.578 5.10152C51.4111 5.61167 52.0771 6.38276 52.5758 7.41479C53.0746 8.44096 53.3239 9.72807 53.3239 11.2761C53.3239 12.7831 53.0804 14.0556 52.5934 15.0935C52.1123 16.1255 51.4551 16.9083 50.622 17.4419C49.7947 17.9697 48.8676 18.2335 47.8408 18.2335C47.1132 18.2335 46.4942 18.1133 45.9838 17.8729C45.4792 17.6325 45.0655 17.3305 44.7428 16.9669C44.4201 16.5975 44.1737 16.2252 44.0035 15.8499H43.8363V18.0136H40.1398ZM43.8099 11.2585C43.8099 12.0619 43.9214 12.7626 44.1443 13.3607C44.3673 13.9588 44.69 14.425 45.1125 14.7592C45.5349 15.0876 46.0483 15.2518 46.6527 15.2518C47.2629 15.2518 47.7792 15.0847 48.2017 14.7504C48.6241 14.4103 48.9439 13.9412 49.161 13.3431C49.3839 12.7391 49.4954 12.0443 49.4954 11.2585C49.4954 10.4786 49.3869 9.79257 49.1698 9.20032C48.9527 8.60808 48.6329 8.14484 48.2105 7.8106C47.788 7.47636 47.2687 7.30924 46.6527 7.30924C46.0424 7.30924 45.5261 7.4705 45.1036 7.79301C44.6871 8.11552 44.3673 8.57289 44.1443 9.16514C43.9214 9.75738 43.8099 10.4552 43.8099 11.2585Z" fill="white"/>
<path d="M1.10014 29.7225H5.79995L10.7638 41.8254H10.975L15.9389 29.7225H20.6387V47.7361H16.9422V36.0114H16.7926L12.128 47.6482H9.61085L4.94624 35.9675H4.79662V47.7361H1.10014V29.7225Z" fill="white"/>
<path d="M23.7081 47.7361V34.2259H27.4574V47.7361H23.7081ZM25.5915 32.4843C25.0341 32.4843 24.5559 32.2996 24.1569 31.9302C23.7638 31.5549 23.5673 31.1064 23.5673 30.5845C23.5673 30.0685 23.7638 29.6257 24.1569 29.2563C24.5559 28.881 25.0341 28.6934 25.5915 28.6934C26.1489 28.6934 26.6242 28.881 27.0173 29.2563C27.4163 29.6257 27.6158 30.0685 27.6158 30.5845C27.6158 31.1064 27.4163 31.5549 27.0173 31.9302C26.6242 32.2996 26.1489 32.4843 25.5915 32.4843Z" fill="white"/>
<path d="M34.21 39.9255V47.7361H30.4607V34.2259H34.034V36.6095H34.1924C34.4917 35.8238 34.9933 35.2022 35.6974 34.7448C36.4015 34.2816 37.2552 34.05 38.2586 34.05C39.1973 34.05 40.0159 34.2552 40.7141 34.6657C41.4123 35.0762 41.955 35.6625 42.3423 36.4248C42.7295 37.1813 42.9232 38.0843 42.9232 39.1339V47.7361H39.1739V39.8024C39.1797 38.9756 38.9685 38.3306 38.5402 37.8673C38.1119 37.3982 37.5222 37.1637 36.7712 37.1637C36.2666 37.1637 35.8206 37.2722 35.4334 37.4891C35.052 37.7061 34.7528 38.0227 34.5357 38.439C34.3245 38.8495 34.2159 39.345 34.21 39.9255Z" fill="white"/>
<path d="M50.8596 47.956C49.8328 47.956 48.9028 47.6921 48.0696 47.1644C47.2423 46.6308 46.5852 45.848 46.0982 44.8159C45.6171 43.778 45.3765 42.5056 45.3765 40.9986C45.3765 39.4506 45.6259 38.1635 46.1246 37.1373C46.6233 36.1053 47.2863 35.3342 48.1136 34.824C48.9468 34.308 49.8592 34.05 50.8508 34.05C51.6077 34.05 52.2384 34.179 52.743 34.437C53.2535 34.6891 53.6642 35.0058 53.9752 35.3869C54.292 35.7622 54.5326 36.1316 54.6969 36.4952H54.8113V29.7225H58.5518V47.7361H54.8553V45.5724H54.6969C54.5209 45.9477 54.2715 46.32 53.9488 46.6894C53.632 47.053 53.2183 47.355 52.7078 47.5954C52.2032 47.8358 51.5872 47.956 50.8596 47.956ZM52.0478 44.9743C52.6521 44.9743 53.1626 44.8101 53.5792 44.4817C54.0016 44.1475 54.3243 43.6813 54.5473 43.0832C54.7761 42.4851 54.8905 41.7844 54.8905 40.981C54.8905 40.1777 54.779 39.4799 54.5561 38.8876C54.3331 38.2954 54.0104 37.838 53.588 37.5155C53.1655 37.193 52.6521 37.0317 52.0478 37.0317C51.4317 37.0317 50.9124 37.1989 50.49 37.5331C50.0675 37.8673 49.7477 38.3306 49.5306 38.9228C49.3135 39.5151 49.205 40.2011 49.205 40.981C49.205 41.7668 49.3135 42.4616 49.5306 43.0656C49.7536 43.6637 50.0734 44.1328 50.49 44.4729C50.9124 44.8071 51.4317 44.9743 52.0478 44.9743Z" fill="white"/>
<path d="M67.7952 48C66.4046 48 65.2077 47.7185 64.2043 47.1556C63.2069 46.5868 62.4382 45.7835 61.8984 44.7456C61.3586 43.7018 61.0887 42.4675 61.0887 41.0426C61.0887 39.6529 61.3586 38.4332 61.8984 37.3836C62.4382 36.3339 63.1981 35.5159 64.1779 34.9296C65.1637 34.3432 66.3195 34.05 67.6456 34.05C68.5374 34.05 69.3677 34.1936 70.1363 34.481C70.9108 34.7624 71.5856 35.1876 72.1606 35.7564C72.7414 36.3251 73.1932 37.0405 73.5159 37.9025C73.8386 38.7586 74 39.7613 74 40.9106V41.9397H62.5849V39.6177H70.4707C70.4707 39.0782 70.3534 38.6003 70.1187 38.184C69.884 37.7676 69.5584 37.4422 69.1418 37.2077C68.731 36.9672 68.2529 36.847 67.7072 36.847C67.138 36.847 66.6334 36.979 66.1934 37.2428C65.7592 37.5008 65.4189 37.8497 65.1725 38.2895C64.926 38.7234 64.7999 39.2072 64.794 39.7408V41.9485C64.794 42.617 64.9172 43.1946 65.1637 43.6813C65.4159 44.168 65.7709 44.5433 66.2286 44.8072C66.6863 45.071 67.229 45.203 67.8568 45.203C68.2734 45.203 68.6548 45.1443 69.001 45.027C69.3471 44.9098 69.6434 44.7339 69.8899 44.4993C70.1363 44.2647 70.3241 43.9774 70.4531 43.6373L73.9208 43.866C73.7448 44.6987 73.3839 45.4258 72.8382 46.0473C72.2984 46.663 71.6002 47.1439 70.7436 47.4898C69.8928 47.8299 68.91 48 67.7952 48Z" fill="white"/>
</svg>
