<svg width="58" height="25" viewBox="0 0 58 25" fill="none" xmlns="http://www.w3.org/2000/svg">
<path fill-rule="evenodd" clip-rule="evenodd" d="M41.2075 8.58049L41.2068 8.58071L39.2903 12.0379L46.7643 24.8939H39.6185L30.1541 8.77323L27.6476 12.1821L24.3637 6.46177L28.3891 0.211783H32.4145L32.4138 0.216075L32.4151 0.211708L35.655 5.78466L39.6185 0H43.4321L43.432 0.00044566L57.8385 25H50.7411L44.2792 13.7712L41.2223 8.52351L41.2075 8.58049ZM7.09745 1.73748e-05H0L14.4065 24.9996L14.4064 25H18.22L22.1835 19.2154L25.4234 24.7883L25.4247 24.7839L25.424 24.7883H29.4494L33.4748 18.5383L30.1909 12.8179L27.6844 16.2268L18.22 0.106165H11.0742L18.5482 12.9622L16.6318 16.4193L16.631 16.4195L16.6162 16.4765L13.5593 11.2288L7.09745 1.73748e-05Z" fill="#C9BB9C"/>
</svg>
